<svg xmlns="http://www.w3.org/2000/svg" viewBox="0 0 64 64"><g fill="#FFF"><path d="M41.155.147c2.846-.164 1.078 20.928.88 23.112-.2 2.18 15.183-3.23 18.007-2.173 2.82 1.063-8.004 6.59-8.684 6.613-.68.024-1.482 1.317-2.117-.402-.188-.504-7.167 1.125-7.167 1.125s-2.156 17.93 17.02 20.05c4.887.544 4.78.327 4.666 1.108-.468 3.24-8.83 5.39-8.83 5.39s-1.185 1.258-6.82-.82c-2.423-.893-7.856-4.152-10.44-10.117-.46-1.062-1.17 1.043-1.757 2.48-.3.738-1.563 4.934-1.563 4.934s-7.405 4.686-9.362 4.393c-1.172-.176 7.444-16.135 4.9-15.45-5.893 5.323-9.776 7.183-17.464 10.144-3.488 1.31-13.01 2.93-12.164.672 1.246-3.32 6.075-4.21 10.106-5.742 2.094-.8 10.06-1.53 20.833-13.988 1.866-2.16-5.95-.06-25.23 1.594-11.72 1.008 3.907-6.007 3.907-6.007l22.793-1.775s3.704-13.812.042-19.605c0 0 3.396-5.246 8.443-5.536z"/><path d="M49.6 7.246c1.407.046 7.995 2.863 7.995 2.863s.7 2.353-1.018 4.255c-1.715 1.903-2.982 1.994-2.982 1.994-1.172-2-4.916-8.71-4.205-9.084a.432.432 0 0 1 .21-.03z"/></g></svg>
